<?xml version="1.0" encoding="UTF-8" standalone="no"?>
<!-- Created with Inkscape (http://www.inkscape.org/) -->

<svg
   width="80mm"
   height="80mm"
   viewBox="0 0 80 80"
   version="1.1"
   id="svg1"
   xml:space="preserve"
   inkscape:export-filename="WappenCleaned.svg"
   inkscape:export-xdpi="300"
   inkscape:export-ydpi="300"
   inkscape:version="1.4 (86a8ad7, 2024-10-11)"
   sodipodi:docname="WappenV2_cleaned.svg"
   xmlns:inkscape="http://www.inkscape.org/namespaces/inkscape"
   xmlns:sodipodi="http://sodipodi.sourceforge.net/DTD/sodipodi-0.dtd"
   xmlns="http://www.w3.org/2000/svg"
   xmlns:svg="http://www.w3.org/2000/svg"><sodipodi:namedview
     id="namedview1"
     pagecolor="#ffffff"
     bordercolor="#000000"
     borderopacity="0.25"
     inkscape:showpageshadow="2"
     inkscape:pageopacity="0.0"
     inkscape:pagecheckerboard="0"
     inkscape:deskcolor="#d1d1d1"
     inkscape:document-units="mm"
     showguides="true"
     inkscape:zoom="2.8284271"
     inkscape:cx="180.48901"
     inkscape:cy="184.37809"
     inkscape:window-width="2400"
     inkscape:window-height="1494"
     inkscape:window-x="-11"
     inkscape:window-y="-11"
     inkscape:window-maximized="1"
     inkscape:current-layer="layer3" /><defs
     id="defs1" /><g
     inkscape:groupmode="layer"
     id="layer6"
     inkscape:label="Patch"
     transform="matrix(0.42235152,0,0,0.42235152,-4.3469096,-22.719201)"
     style="display:inline;stroke-width:2.36769"><circle
       style="display:inline;opacity:1;fill:#454b28;fill-opacity:1;stroke:#c0c0c0;stroke-width:2.3677;stroke-dasharray:none;stroke-opacity:1"
       id="circle32"
       cx="105"
       cy="148.5"
       r="93.407822"
       inkscape:label="Hintergrund" /><g
       inkscape:groupmode="layer"
       id="layer4"
       inkscape:label="Charlie"
       transform="matrix(1.0582762,0,0,1.0582762,-6.4854452,-8.654012)"
       style="display:inline;stroke-width:2.23731"><path
         style="display:inline;fill:#ffcc00;fill-opacity:1;stroke:none;stroke-width:2.23731"
         d="m 74.976338,169.94156 -8.524028,6.01824 -6.001184,4.23695 a 55.056393,55.056393 0 0 0 44.894934,23.35982 V 185.7127 A 37.212578,37.212578 0 0 1 74.976338,169.94156 Z"
         id="path4"
         inkscape:label="Gold" /><path
         id="path1"
         style="display:inline;fill:#dd0000;fill-opacity:1;stroke:none;stroke-width:2.23731"
         d="m 60.451126,116.80321 a 55.056393,55.056393 0 0 0 -10.161137,31.69677 55.056393,55.056393 0 0 0 10.161137,31.69677 l 6.001184,-4.23695 8.524028,-6.01824 a 37.212578,37.212578 0 0 1 -6.842477,-21.44158 37.212578,37.212578 0 0 1 6.842477,-21.44159 l -8.524028,-6.01823 z"
         inkscape:label="Rot" /><path
         style="display:inline;fill:#000000;fill-opacity:1;stroke:none;stroke-width:2.23731"
         d="M 105.34606,93.443392 A 55.056393,55.056393 0 0 0 60.451126,116.80321 l 6.001184,4.23695 8.524028,6.01823 a 37.212578,37.212578 0 0 1 30.369722,-15.77113 z"
         id="path3"
         inkscape:label="Schwarz" /></g><g
       inkscape:groupmode="layer"
       id="layer3"
       inkscape:label="Adler"
       transform="matrix(0.37553494,0,0,0.37553494,67.080592,103.85175)"
       style="display:inline;fill:#c0c0c0;fill-opacity:1;stroke-width:3.03812"><g
         inkscape:groupmode="layer"
         id="g26"
         inkscape:label="Adler groß"
         transform="matrix(2.5539493,0,0,2.5539643,-230.76143,-364.49761)"
         style="fill:#c0c0c0;fill-opacity:1;stroke-width:1.18958"><path
           id="path25"
           style="display:inline;opacity:1;fill:#c0c0c0;fill-opacity:1;stroke:none;stroke-width:2.37916;stroke-linecap:square;stroke-linejoin:round;stroke-opacity:1"
           inkscape:label="Adlerkopf"
           d="m 142.40148,194.31054 c 0.36958,0.46496 0.90933,0.82064 1.43166,1.18551 l 0.8523,-2.78628 h -1.12691 c -0.38079,-8.9e-4 -0.65252,-0.36935 -0.54085,-0.7334 l 0.65471,-2.14162 0.26457,-0.86568 c 0.0721,-0.2394 0.2925,-0.40333 0.54252,-0.40354 h 6.14859 c 0.25002,2.1e-4 0.47041,0.16414 0.54252,0.40354 l 0.26457,0.86568 1.73138,5.6613 c 0.52233,-0.36487 1.06208,-0.72055 1.43166,-1.18551 l 0.4454,-0.46884 c 0.43157,-0.67554 0.68434,-1.39556 0.7602,-2.12655 0.0272,-0.26695 0.217,-0.46755 0.44206,-0.46717 h 5.33648 l 6.16031,-20.38969 h -8.79757 c -0.90619,1.14006 -2.08549,2.12101 -3.4678,2.88172 l -3.15634,-10.32629 -0.42364,-1.38476 h -9.81731 l -0.42364,1.38476 -1.04486,3.41921 h 3.02239 l -2.11148,6.90708 c -1.38231,-0.76071 -2.56161,-1.74166 -3.4678,-2.88172 h -8.79757 l 6.15864,20.38969 h 5.33815 c 0.22506,-3.8e-4 0.41488,0.20022 0.44206,0.46717 0.0759,0.73099 0.32863,1.45101 0.7602,2.12655 z"
           sodipodi:nodetypes="cccccccccccccccccccccccccccccccccc" /><path
           id="path26"
           style="display:inline;opacity:1;fill:#c0c0c0;fill-opacity:1;stroke:none;stroke-width:0.921586;stroke-linecap:square;stroke-linejoin:round;stroke-dasharray:none;stroke-opacity:1"
           inkscape:label="Adlerflügel"
           inkscape:transform-center-x="-2.1893738e-06"
           inkscape:transform-center-y="28.020131"
           d="m 22.163927,65.903874 3.325894,5.760637 h 3.703097 l -1.61162,-4.411721 h 3.894475 c -0.320164,-0.419432 -0.515084,-0.8779 -0.573498,-1.348916 z m 19.211412,0 c -0.05841,0.471016 -0.253334,0.929484 -0.573498,1.348916 h 3.89448 l -1.61162,4.411721 h 3.703093 l 3.325893,-5.760637 z"
           transform="matrix(2.3617164,0,0,2.8218852,63.150366,-19.718716)"
           sodipodi:nodetypes="cccccccccccccc" /></g><g
         inkscape:groupmode="layer"
         id="g23"
         inkscape:label="Adler mittel"
         transform="matrix(1.5995599,0,0,1.5995678,-89.034627,-140.63453)"
         style="fill:#c0c0c0;fill-opacity:1;stroke-width:1.89934"><path
           id="path22"
           style="display:inline;opacity:1;fill:#c0c0c0;fill-opacity:1;stroke:none;stroke-width:3.79872;stroke-linecap:square;stroke-linejoin:round;stroke-opacity:1"
           inkscape:label="Adlerkopf"
           d="m 142.37471,194.41321 c 0.3857,0.48524 0.94222,0.86204 1.49183,1.23784 l 0.89295,-2.91413 h -1.19239 c -0.34899,3.6e-4 -0.59823,-0.33781 -0.4946,-0.67105 l 0.65501,-2.13614 0.26468,-0.86622 c 0.0664,-0.21753 0.26715,-0.36616 0.4946,-0.36627 h 6.13842 c 0.22746,1e-4 0.42817,0.14874 0.49461,0.36627 l 0.26467,0.86622 1.74849,5.72132 c 0.54989,-0.37589 1.10598,-0.75241 1.49183,-1.23784 l 0.38231,-0.51866 c 0.428,-0.66995 0.6789,-1.38112 0.75394,-2.10406 0.0289,-0.28415 0.23098,-0.49767 0.47054,-0.49727 h 5.33903 l 6.17318,-20.43367 h -8.79858 c -0.90619,1.14006 -2.08526,2.11867 -3.46757,2.87938 l -3.15743,-10.32511 -0.42242,-1.38489 h -9.81719 l -0.42242,1.38489 -1.04535,3.41942 h 3.02109 l -2.11209,6.90569 c -1.38231,-0.76071 -2.56137,-1.73932 -3.46756,-2.87938 h -8.79591 l 6.1705,20.43367 h 5.33904 c 0.23956,-4e-4 0.44161,0.21312 0.47054,0.49727 0.075,0.72294 0.32593,1.43411 0.75393,2.10406 z"
           sodipodi:nodetypes="cccccccccccccccccccccccccccccccccc" /><path
           id="path23"
           style="display:inline;opacity:1;fill:#c0c0c0;fill-opacity:1;stroke:none;stroke-width:1.47145;stroke-linecap:square;stroke-linejoin:round;stroke-dasharray:none;stroke-opacity:1"
           inkscape:label="Adlerflügel"
           inkscape:transform-center-x="-2.1893738e-06"
           inkscape:transform-center-y="28.020131"
           d="m 22.163927,65.903874 3.325894,5.760637 h 3.579077 L 27.457279,67.25279 h 4.018494 c -0.320164,-0.419432 -0.515084,-0.8779 -0.573498,-1.348916 z m 19.211412,0 c -0.05841,0.471016 -0.253334,0.929484 -0.573498,1.348916 h 4.018504 l -1.611619,4.411721 h 3.579068 l 3.325893,-5.760637 z"
           sodipodi:nodetypes="cccccccccccccc"
           transform="matrix(2.3617164,0,0,2.8218852,63.150366,-19.718716)" /></g><g
         inkscape:groupmode="layer"
         id="layer2"
         inkscape:label="Adler klein"
         style="fill:#c0c0c0;fill-opacity:1;stroke-width:3.03812"><path
           id="path17"
           style="display:inline;opacity:1;fill:#c0c0c0;fill-opacity:1;stroke:none;stroke-width:6.07628;stroke-linecap:square;stroke-linejoin:round;stroke-opacity:1"
           inkscape:label="Adlerkopf"
           d="m 142.08022,162.02939 -0.42323,1.38441 -1.04542,3.41891 h 3.02204 l -2.11098,6.90656 c -1.38231,-0.76071 -2.56182,-1.74039 -3.46801,-2.88045 h -8.79739 l 19.24275,63.70102 19.24275,-63.70102 h -8.79739 c -0.90619,1.14006 -2.0857,2.11974 -3.46801,2.88045 l -3.15639,-10.32547 -0.42323,-1.38441 z"
           sodipodi:nodetypes="cccccccccccccc" /><path
           id="path18"
           style="display:inline;opacity:1;fill:#c0c0c0;fill-opacity:1;stroke:none;stroke-width:2.3537;stroke-linecap:square;stroke-linejoin:round;stroke-dasharray:none;stroke-opacity:1"
           inkscape:label="Adlerflügel"
           inkscape:transform-center-x="-2.1893738e-06"
           inkscape:transform-center-y="28.020131"
           d="m 22.163927,65.903874 3.325894,5.760637 h 3.380814 L 27.259109,67.25279 h 4.216664 a 5.2552255,3.5779504 0 0 1 -0.573498,-1.348916 z m 19.211412,0 a 5.2552255,3.5779504 0 0 1 -0.573498,1.348916 h 4.216665 l -1.611527,4.411721 h 3.380815 l 3.325893,-5.760637 z"
           transform="matrix(2.3617164,0,0,2.8218852,63.150366,-19.718716)" /></g><path
         style="font-size:56.492px;font-family:Bahnschrift;-inkscape-font-specification:Bahnschrift;stroke-width:1.26098"
         d="m 148.76203,44.159583 q -3.39283,0 -5.95814,-1.213696 -2.53773,-1.241279 -4.08243,-3.558334 -1.5447,-2.317054 -1.98605,-5.627133 v 0 h 5.73747 v 0 q 0.38618,2.592895 2.04122,3.80659 1.65503,1.186112 4.24793,1.186112 2.78598,0 4.33068,-1.489535 1.54471,-1.489536 1.54471,-4.192766 v -1.213695 q 0,-3.006655 -1.46195,-4.63411 -1.46195,-1.655039 -4.1376,-1.655039 h -2.84115 v -5.351293 h 2.84115 q 2.37222,0 3.64109,-1.406783 1.29644,-1.406783 1.29644,-3.972094 v -1.241279 q 0,-2.372223 -1.3792,-3.6686703 -1.35161,-1.2964473 -3.86175,-1.2964473 -2.12397,0 -3.61351,1.2136954 -1.46195,1.1861112 -2.01363,3.7790062 v 0 h -5.70988 v 0 q 0.8551,-4.9651176 3.80659,-7.6683481 2.97907,-2.7308145 7.53043,-2.7308145 5.18578,0 8.02693,2.7308145 2.84116,2.7308145 2.84116,7.6959321 v 0.662015 q 0,3.006655 -1.62746,5.240957 -1.62745,2.206719 -4.60653,3.254911 3.2825,0.689599 5.07546,3.227326 1.82054,2.510142 1.82054,6.399484 v 0.662016 q 0,5.268541 -3.00665,8.164859 -3.00666,2.896319 -8.49587,2.896319 z"
         id="text29"
         inkscape:label="3"
         aria-label="3" /></g><g
       inkscape:groupmode="layer"
       id="layer5"
       inkscape:label="Umrisse"
       style="display:inline;stroke:#c0c0c0;stroke-width:2.23731;stroke-opacity:1"
       transform="matrix(1.0582762,0,0,1.0582762,-6.1189984,-8.654012)"><path
         id="rect8"
         style="display:inline;opacity:1;fill:none;stroke:#c0c0c0;stroke-width:1.11866;stroke-dasharray:none;stroke-opacity:1"
         d="M 105.00001,203.55628 105,185.71241 c -20.551846,0 -37.212408,-16.66056 -37.212406,-37.21241 -2e-6,-20.55185 16.66056,-37.21241 37.212406,-37.21241 l 1e-5,-17.843864"
         sodipodi:nodetypes="ccscc"
         inkscape:label="Innerer Umrandung C" /><circle
         style="display:inline;opacity:1;fill:none;fill-opacity:1;stroke:#c0c0c0;stroke-width:2.23731;stroke-dasharray:none;stroke-opacity:1"
         id="path5"
         cx="105"
         cy="148.5"
         inkscape:label="Innerer Kreis"
         r="55.056278" /><path
         id="circle5"
         style="fill:#c0c0c0;stroke:none;stroke-width:2.23731"
         d="m 105.00032,83.575264 c -35.783546,0 -64.814109,29.030566 -64.814109,64.814106 0,28.92644 18.974247,53.43134 45.147209,61.76405 l 1.061591,-1.83865 c -25.5656,-7.92336 -44.12442,-31.74784 -44.12442,-59.9254 0,-34.65641 28.073315,-62.729726 62.729729,-62.729726 34.65642,0 62.72865,28.073316 62.72865,62.729726 0,28.17755 -18.55775,52.00203 -44.12335,59.9254 l 1.0616,1.83865 c 26.17296,-8.33271 45.14721,-32.83761 45.14721,-61.76405 0,-35.78354 -29.03056,-64.814106 -64.81411,-64.814106 z"
         inkscape:label="Mittlerer Kreis" /><path
         style="display:inline;opacity:1;fill:none;fill-opacity:1;stroke:#c0c0c0;stroke-width:1.11866;stroke-dasharray:none;stroke-dashoffset:0;stroke-opacity:1"
         d="M 26.543338,148.49999 H 91.060907"
         id="path29"
         inkscape:label="Links Strich" /><path
         style="display:inline;opacity:1;fill:none;fill-opacity:1;stroke:#c0c0c0;stroke-width:1.11866;stroke-dasharray:none;stroke-dashoffset:0;stroke-opacity:1"
         d="m 160.60666,148.49999 h 22.84999"
         id="path30"
         inkscape:label="Rechts Strich" /><path
         style="display:inline;opacity:1;fill:none;fill-opacity:1;stroke:#c0c0c0;stroke-width:1.11866;stroke-dasharray:none;stroke-dashoffset:0;stroke-opacity:1"
         d="m 105.34606,80.47445 v 25.93788"
         id="path31"
         transform="translate(-0.34626769)"
         inkscape:label="Oben Strich" /></g><g
       inkscape:groupmode="layer"
       id="layer7"
       inkscape:label="Text"
       transform="matrix(2.367696,0,0,2.367696,10.29216,53.792161)"><path
         style="display:inline;stroke-width:2.23731;font-size:8.46667px;font-family:Bahnschrift;-inkscape-font-specification:Bahnschrift;fill:#c0c0c0"
         d="m 47.158023,8.9425475 1.657351,-5.7780071 0.81067,0.2325307 -1.657352,5.7780072 z m 0.405335,0.1162654 0.221132,-0.7709308 3.30626,0.9483607 -0.221133,0.7709312 z"
         id="path8"
         inkscape:label="L" /><path
         style="display:inline;stroke-width:2.23731;font-size:8.46667px;font-family:Bahnschrift;-inkscape-font-specification:Bahnschrift;fill:#c0c0c0;letter-spacing:0px"
         d="M 38.555065,8.2676523 Q 37.919109,8.29744 37.43144,8.0471313 36.943578,7.792693 36.655879,7.3053921 36.37231,6.8178978 36.341169,6.153034 l -0.07969,-1.7013905 q -0.03134,-0.6689934 0.205617,-1.17673 0.240889,-0.5120595 0.703026,-0.8068565 0.461943,-0.2989266 1.0979,-0.3287144 0.635956,-0.029788 1.123819,0.2246505 0.487668,0.2503088 0.771237,0.7378031 0.287505,0.4831713 0.31884,1.1521647 l 0.07969,1.7013905 q 0.03114,0.6648638 -0.209747,1.1769234 -0.236759,0.5118661 -0.698702,0.8107927 -0.462137,0.294797 -1.098094,0.3245848 z m -0.03888,-0.8300474 q 0.565753,-0.026499 0.886971,-0.4140235 0.325348,-0.3877175 0.29672,-0.9988966 L 39.617478,4.26548 Q 39.588658,3.6501713 39.228687,3.2986924 38.872652,2.9428904 38.306898,2.9693899 37.745274,2.995696 37.419927,3.3834135 37.094386,3.7670013 37.123207,4.3823101 l 0.0824,1.7592047 q 0.02863,0.6111792 0.388791,0.9667877 0.360165,0.3556085 0.921789,0.3293024 z m 3.642307,0.7639129 0.723133,-5.9673495 0.837234,0.1014573 -0.723132,5.9673496 z m 0.418618,0.050729 0.09648,-0.7961938 3.414604,0.4137868 -0.09648,0.7961938 z"
         id="path7"
         inkscape:label="OL" /><path
         style="display:inline;stroke-width:2.23731;font-size:8.46667px;font-family:Bahnschrift;-inkscape-font-specification:Bahnschrift;fill:#c0c0c0;letter-spacing:1.05833px"
         d="M 33.217962,8.900625 33.04149,8.0337032 33.908412,7.8572318 34.084884,8.7241536 Z"
         id="path6"
         inkscape:label="Punkt" /><path
         style="display:inline;stroke-width:2.23731;font-size:8.46667px;font-family:Bahnschrift;-inkscape-font-specification:Bahnschrift;fill:#c0c0c0"
         d="M 28.899548,10.125267 28.680707,9.427019 29.844975,6.1334158 q 0.101865,-0.2832054 0.119887,-0.5574627 0.02197,-0.2754937 -0.04603,-0.4924634 l -0.0025,-0.00789 Q 29.808789,4.7323933 29.548252,4.6060937 29.287715,4.4797941 28.916894,4.5960145 28.569743,4.7048166 28.414357,4.9831342 28.261679,5.2562705 28.333034,5.6498179 l 0.0012,0.00394 -0.832374,0.2608777 -0.0012,-0.00394 q -0.125928,-0.7750243 0.180663,-1.317352 0.305355,-0.5462725 0.987824,-0.7601676 0.773201,-0.2423319 1.317708,0.01592 0.544507,0.2582519 0.768293,0.9722795 l 0.0012,0.00394 q 0.0952,0.3037575 0.07406,0.6786387 -0.02238,0.3709363 -0.152038,0.7451679 l -0.953591,2.7770039 2.169697,-0.6800131 0.239859,0.7653113 z"
         id="path2"
         inkscape:label="2" /><path
         style="font-size:8.46667px;font-family:Bahnschrift;-inkscape-font-specification:Bahnschrift;letter-spacing:0.264583px;fill:#c0c0c0;stroke-width:2.23731"
         d="M 5.0003963,54.633713 Q 4.7554471,54.046067 4.8243789,53.502262 4.8971266,52.956867 5.2570516,52.52019 5.6185671,52.087329 6.2329246,51.831246 L 7.805069,51.175927 q 0.6181733,-0.257673 1.1762859,-0.208142 0.5635191,0.05176 0.9982841,0.385605 0.438581,0.332258 0.68353,0.919904 0.244949,0.587646 0.172202,1.133042 -0.06893,0.543805 -0.430448,0.976665 -0.356109,0.435087 -0.9742822,0.69276 L 7.8584964,55.73108 Q 7.244139,55.987163 6.6806199,55.935407 6.1186913,55.887466 5.6801105,55.555208 5.2453455,55.22136 5.0003963,54.633713 Z m 0.7669928,-0.319706 q 0.2179094,0.522776 0.6917665,0.692527 0.4754476,0.173566 1.0401986,-0.06184 L 9.124921,54.267107 Q 9.6934878,54.030111 9.9010835,53.571831 10.114086,53.115777 9.8961763,52.593 9.6798575,52.07404 9.2044098,51.900474 8.732778,51.725317 8.1642112,51.962313 L 6.5386444,52.6399 q -0.5647509,0.235406 -0.7761625,0.695276 -0.2114115,0.459871 0.00491,0.978831 z m 0.830863,3.616614 5.1662549,-3.072783 0.431119,0.724839 -5.1662544,3.072783 z m 2.3858501,-0.938045 0.6893077,-0.409986 1.4898981,2.504958 -0.689307,0.409986 z m 2.3024298,-1.369438 0.689308,-0.409986 1.722364,2.895802 -0.689307,0.409987 z m -1.9896992,6.614207 4.7088092,-3.736214 0.524201,0.660659 -4.7088097,3.736213 z m 2.2389362,-1.248749 0.628273,-0.498505 1.811575,2.283158 -0.628273,0.498504 z m 2.098561,-1.665108 0.628274,-0.498504 2.094232,2.639394 -0.628273,0.498505 z m 3.831815,3.207221 -4.30659,4.193503 -0.588359,-0.604226 4.30659,-4.193503 z m 3.417532,3.027285 -0.468806,0.556443 -4.888717,1.741084 2.064532,1.739376 -0.516752,0.613352 -2.858096,-2.407957 0.468806,-0.556443 4.904525,-1.727765 -1.960198,-1.651475 0.516751,-0.613353 z m 1.432216,0.950115 -3.401757,4.955828 -0.695316,-0.477275 3.401757,-4.955828 z m -1.942627,5.932548 2.865837,-5.283858 0.741339,0.402084 -2.865837,5.283858 z m 0.359767,0.195129 0.382375,-0.704999 3.034402,1.645787 -0.382374,0.704999 z m 1.231877,-2.27126 0.382374,-0.704999 2.634661,1.428977 -0.382374,0.704999 z m 1.251586,-2.307599 0.382374,-0.704999 3.034403,1.645787 -0.382374,0.704998 z m 3.117309,4.561733 0.276887,-0.752707 1.924446,0.707917 q 0.345314,0.127025 0.64332,-0.03646 0.298006,-0.163484 0.443585,-0.559237 v 0 q 0.14558,-0.395753 0.02455,-0.713381 -0.121027,-0.317627 -0.466341,-0.444652 l -1.924446,-0.707917 0.276887,-0.752707 1.893407,0.696499 q 0.492751,0.181261 0.7857,0.522486 0.294377,0.337345 0.361972,0.776276 0.07147,0.440358 -0.109787,0.933109 v 0 q -0.179833,0.488872 -0.521058,0.781821 -0.339798,0.289069 -0.784036,0.359117 -0.438931,0.06759 -0.931682,-0.113666 z m -1.223073,2.259133 2.07665,-5.645301 0.791506,0.291159 -2.07665,5.645301 z m 3.173784,1.167491 -0.350032,-3.036029 0.85328,0.111255 0.435696,3.270169 z m 3.901396,1.076914 q -0.428755,-0.09057 -0.791883,-0.251781 -0.359084,-0.160358 -0.656585,-0.392215 -0.293457,-0.231003 -0.529377,-0.534358 v 0 l 0.646987,-0.522487 v 0 q 0.274205,0.362147 0.647932,0.593204 0.373726,0.231057 0.846975,0.331025 0.639088,0.134998 1.041401,-0.02931 0.402314,-0.164312 0.492882,-0.593067 l 8.55e-4,-0.004 q 0.07092,-0.335723 -0.06946,-0.551291 -0.14038,-0.215569 -0.413667,-0.362029 -0.268387,-0.149651 -0.600238,-0.278905 -0.319717,-0.12669 -0.643251,-0.275314 -0.319489,-0.147769 -0.568453,-0.369373 -0.248108,-0.225649 -0.357101,-0.569798 -0.104948,-0.343295 0.0036,-0.856992 l 8.55e-4,-0.004 q 0.173447,-0.821106 0.814344,-1.154739 0.641751,-0.337677 1.636786,-0.127489 0.473249,0.09997 0.893805,0.349367 0.42141,0.245355 0.784375,0.647377 v 0 l -0.60762,0.556155 v 0 q -0.282749,-0.321699 -0.59284,-0.513961 -0.306046,-0.191409 -0.641769,-0.262326 -0.602684,-0.127308 -0.989672,0.04447 -0.38209,0.168584 -0.475221,0.609474 l -8.55e-4,0.004 q -0.07006,0.331678 0.08735,0.546619 0.157413,0.214941 0.450924,0.365674 0.298411,0.147542 0.643023,0.296393 0.309918,0.133071 0.613855,0.294457 0.304792,0.15734 0.530967,0.386807 0.231075,0.226276 0.325598,0.558918 0.09857,0.333496 -0.0031,0.814834 l -0.0017,0.0081 q -0.171739,0.813016 -0.832005,1.138332 -0.660267,0.325315 -1.687661,0.108292 z m 5.428033,0.73862 Q 36.986947,77.819073 36.5351,77.511391 36.083527,77.199583 35.857158,76.679033 35.63079,76.158483 35.675556,75.486111 l 0.109579,-1.645869 q 0.04504,-0.676497 0.33842,-1.162443 0.293379,-0.485946 0.782028,-0.731012 0.488924,-0.24919 1.115921,-0.207445 0.519748,0.0346 0.933916,0.285915 0.418293,0.251586 0.680402,0.670934 0.266235,0.419622 0.333656,0.962736 v 0 l -0.862121,-0.0574 v 0 q -0.05915,-0.293967 -0.230494,-0.520825 -0.166943,-0.230708 -0.406478,-0.36681 -0.239534,-0.136103 -0.503533,-0.15368 -0.552748,-0.0368 -0.917087,0.332553 -0.35994,0.365503 -0.402508,1.004875 l -0.10958,1.645869 q -0.04257,0.639372 0.26574,1.049366 0.312433,0.410269 0.86518,0.44707 0.391874,0.02609 0.754851,-0.198339 0.362976,-0.22443 0.513635,-0.682589 v 0 l 0.862121,0.0574 v 0 q -0.138827,0.529382 -0.45834,0.910006 -0.319514,0.380625 -0.763342,0.574812 -0.443829,0.194187 -0.963577,0.159583 z m 6.861426,-0.230514 -0.506963,-5.989589 0.840355,-0.07113 0.506963,5.989588 z m -3.402613,0.288 -0.506964,-5.989589 0.840355,-0.07113 0.506964,5.989588 z m 0.307336,-2.594182 -0.06764,-0.799161 3.324345,-0.281375 0.06764,0.799161 z m 7.653322,1.520359 q -0.975927,0.23826 -1.652342,-0.196632 -0.67338,-0.439889 -0.926348,-1.476059 l -0.909899,-3.726997 0.819297,-0.200021 0.916763,3.75511 q 0.155898,0.63857 0.562494,0.909536 0.406596,0.270967 0.992956,0.127814 0.590375,-0.144132 0.826365,-0.571978 0.240006,-0.428826 0.08411,-1.067395 l -0.916762,-3.755111 0.819297,-0.200021 0.909899,3.726998 q 0.252967,1.036169 -0.145968,1.73785 -0.399916,0.697665 -1.379859,0.936906 z m 3.547782,-1.081923 -2.244515,-5.57623 0.782359,-0.314911 2.244515,5.576229 z m 0.39118,-0.157456 -0.299475,-0.744009 3.1908,-1.284344 0.299474,0.744009 z m 4.314564,-1.859483 -2.989551,-5.21486 0.731659,-0.419442 2.989551,5.21486 z m 0.35507,-0.203552 -0.398881,-0.695793 2.994778,-1.716833 0.398881,0.695793 z m -1.285055,-2.241601 -0.398881,-0.695793 2.600257,-1.490663 0.398881,0.695792 z m -1.305615,-2.277467 -0.398881,-0.695792 2.994778,-1.716833 0.398881,0.695792 z m 7.399404,-1.697073 -0.536052,-0.596558 1.52522,-1.370526 q 0.273678,-0.245922 0.268415,-0.585785 -0.0053,-0.339863 -0.287106,-0.653517 v 0 q -0.281842,-0.313654 -0.61921,-0.355096 -0.337368,-0.04144 -0.611047,0.204479 l -1.52522,1.370527 -0.536052,-0.596558 1.500619,-1.348421 q 0.39053,-0.350921 0.829107,-0.450444 0.435813,-0.102598 0.855452,0.04277 0.422714,0.142607 0.773635,0.533137 v 0 q 0.348158,0.387455 0.447681,0.826031 0.09676,0.435501 -0.04892,0.860979 -0.14537,0.419639 -0.5359,0.77056 z m 1.425664,2.137071 -4.020395,-4.474184 0.627308,-0.563684 4.020395,4.474184 z m 2.515383,-2.260263 -2.847673,-1.109396 0.497128,-0.702373 3.094705,1.143084 z m 2.891268,-3.085951 q -0.404739,0.491441 -0.917597,0.684967 -0.516049,0.190898 -1.070384,0.07712 -0.551708,-0.116965 -1.065488,-0.540101 l -1.314765,-1.082807 q -0.516971,-0.425764 -0.734338,-0.942189 -0.217929,-0.522245 -0.126307,-1.06269 0.08843,-0.543073 0.493169,-1.034514 0.404739,-0.491442 0.920788,-0.68234 0.512858,-0.193526 1.064565,-0.07656 0.551145,0.111145 1.068116,0.536909 l 1.314765,1.082808 q 0.51378,0.423135 0.73171,0.94538 0.220558,0.519053 0.132127,1.062126 -0.09162,0.540445 -0.496361,1.031887 z M 68.641634,63.58852 q 0.36006,-0.437191 0.288364,-0.935404 -0.06907,-0.501403 -0.541362,-0.890373 l -1.359443,-1.119602 q -0.475485,-0.391597 -0.977639,-0.360637 -0.502716,0.02514 -0.862776,0.462333 -0.357431,0.434 -0.288363,0.935403 0.06588,0.498776 0.541362,0.890373 l 1.359442,1.119602 q 0.472294,0.38897 0.977639,0.360638 0.505344,-0.02833 0.862776,-0.462333 z m 3.305579,-3.24041 -4.694081,-2.902665 0.443554,-0.717298 4.69408,2.902666 z m -5.323998,-1.29445 -0.682136,-0.421811 2.230812,-3.607585 0.682137,0.42181 z m 8.554439,-4.961053 -5.500845,-2.423404 0.34001,-0.771783 5.500845,2.423404 z m -1.376707,3.124964 -5.500845,-2.423404 0.34001,-0.771783 5.500845,2.423404 z m -2.130159,-1.51217 -0.73395,-0.323342 1.345039,-3.053083 0.733951,0.323343 z"
         id="text33"
         inkscape:label="Offizierschule Roth"
         aria-label="OFFIZIERSCHULE ROTH" /><path
         style="font-size:7.05556px;font-family:Bahnschrift;-inkscape-font-specification:Bahnschrift;fill:#ffcc00;stroke-width:0.999998"
         d="m 33.025966,69.803321 0.111997,-0.599409 2.144693,-1.968462 q 0.185705,-0.168575 0.306212,-0.363351 0.123893,-0.194144 0.158694,-0.380401 l 0.0013,-0.0068 q 0.05505,-0.294625 -0.08729,-0.489447 -0.142338,-0.194822 -0.460669,-0.254301 -0.298011,-0.05568 -0.52119,0.08837 -0.21916,0.141296 -0.320543,0.458806 l -6.32e-4,0.0034 -0.71455,-0.133511 6.33e-4,-0.0034 q 0.210393,-0.619576 0.64808,-0.898782 0.438321,-0.282592 1.024184,-0.173125 0.663752,0.124019 0.963464,0.526987 0.299712,0.402967 0.185183,1.015922 l -6.32e-4,0.0034 q -0.04872,0.26076 -0.210874,0.528364 -0.161519,0.264217 -0.403271,0.48891 l -1.787648,1.670683 1.86257,0.348015 -0.122755,0.656979 z m 5.093268,0.767776 q -0.715228,-0.044 -1.049361,-0.447687 -0.330482,-0.406912 -0.290288,-1.060246 l 0.139832,-2.272912 q 0.04083,-0.663649 0.425151,-1.019682 0.384323,-0.356033 1.089235,-0.312666 0.708351,0.04358 1.042695,0.443825 0.337994,0.397019 0.296954,1.064107 l -0.139832,2.272912 q -0.04083,0.663649 -0.425151,1.019682 -0.380884,0.356245 -1.089235,0.312667 z m 0.04104,-0.667088 q 0.385122,0.02369 0.565883,-0.16538 0.184411,-0.1923 0.205989,-0.543036 l 0.139833,-2.272913 q 0.02179,-0.354175 -0.137871,-0.564191 -0.156222,-0.209804 -0.541345,-0.233498 -0.385122,-0.02369 -0.569322,0.165168 -0.180761,0.189073 -0.20255,0.543249 l -0.139833,2.272912 q -0.02158,0.350737 0.134433,0.56398 0.15966,0.210016 0.544783,0.233709 z m 2.34996,0.695659 -0.03562,-0.608741 1.607639,-2.426942 q 0.139653,-0.208329 0.209717,-0.42639 0.0735,-0.218263 0.06243,-0.407419 l -4.02e-4,-0.0069 q -0.01751,-0.299212 -0.202568,-0.45403 -0.18506,-0.154819 -0.508346,-0.135902 -0.302651,0.01771 -0.484581,0.211258 -0.178692,0.189908 -0.200643,0.522487 l 2.01e-4,0.0034 -0.725674,0.04246 -2.01e-4,-0.0034 q 0.05502,-0.652006 0.412609,-1.028382 0.357384,-0.379815 0.952368,-0.414631 0.674086,-0.03944 1.062006,0.279505 0.387919,0.318948 0.424345,0.941446 l 2.01e-4,0.0034 q 0.0155,0.264819 -0.07745,0.563592 -0.09315,0.295334 -0.273689,0.571625 l -1.332796,2.051955 1.891568,-0.110685 0.03904,0.667207 z M 45.29757,70.16729 q -0.654877,0.115038 -1.083096,-0.211991 -0.42822,-0.32703 -0.552795,-1.036197 l -5.96e-4,-0.0034 q -0.05603,-0.318955 -0.03039,-0.690733 0.02504,-0.37517 0.132891,-0.736905 l 0.699103,-2.31246 0.746491,-0.131132 -0.826716,2.681164 -0.01807,-0.122749 q 0.117434,-0.366916 0.568722,-0.446191 0.580227,-0.101925 0.967133,0.228864 0.386309,0.327396 0.509692,1.029777 l 5.97e-4,0.0034 q 0.125767,0.715953 -0.164168,1.176132 -0.290531,0.456787 -0.9488,0.572421 z m -0.116827,-0.665056 q 0.332528,-0.05841 0.473208,-0.292997 0.14068,-0.234583 0.07452,-0.611222 l -5.96e-4,-0.0034 q -0.07272,-0.413963 -0.298681,-0.605128 -0.226558,-0.194557 -0.572659,-0.13376 -0.308776,0.05424 -0.438497,0.311384 -0.129722,0.257144 -0.057,0.671107 l 5.96e-4,0.0034 q 0.06616,0.376639 0.278369,0.549233 0.215003,0.168604 0.540745,0.111383 z"
         id="text34"
         inkscape:label="2026"
         aria-label="2026" /></g></g></svg>
